<svg width="108" height="27" viewBox="0 0 108 27" fill="none" xmlns="http://www.w3.org/2000/svg">
<path fill-rule="evenodd" clip-rule="evenodd" d="M7.86126 3.13762C8.09126 3.24762 8.32126 3.29762 8.56126 3.29762C8.75126 3.29762 8.94126 3.26763 9.12126 3.19763C9.53126 3.04763 9.86126 2.74763 10.0513 2.34763C10.1736 2.08999 10.2255 1.81162 10.2068 1.53655C10.4736 1.47804 10.7249 1.43294 10.9713 1.39774C13.8913 0.967742 16.8413 1.58774 19.2913 3.14774C19.6813 3.39774 19.9113 3.82774 19.9113 4.30774C19.9113 4.69774 19.7613 5.06774 19.4913 5.33774C19.0313 5.80774 18.3013 5.89774 17.7513 5.54774C16.2713 4.60774 14.5713 4.10774 12.8113 4.10774C7.80739 4.10774 3.70841 8.10278 3.55568 13.0799C3.26631 13.1729 2.99921 13.3467 2.79124 13.5977C2.22124 14.2977 2.31124 15.3377 3.01124 15.9177C3.3177 16.1748 3.68281 16.295 4.04858 16.2977C5.28514 19.9333 8.62527 22.4615 12.4512 22.6176C12.5612 22.6276 12.6812 22.6276 12.7912 22.6276C14.2612 22.6276 15.7112 22.2776 17.0112 21.6276C17.7112 21.2676 18.1412 20.5476 18.1412 19.7476C18.1412 19.1776 17.9212 18.6376 17.5112 18.2076C17.2312 17.9276 16.8912 17.7476 16.5312 17.6576C16.0412 17.5376 15.5012 17.5876 15.0112 17.8276C14.9512 17.8576 14.8912 17.8876 14.8312 17.9076C14.7429 17.9606 14.639 17.998 14.5402 18.0336L14.5012 18.0476C14.4962 18.0476 14.4887 18.0501 14.4812 18.0526C14.4737 18.0551 14.4662 18.0576 14.4612 18.0576C14.3746 18.0909 14.2879 18.1154 14.2012 18.1398C14.1579 18.1521 14.1146 18.1643 14.0712 18.1776C13.9735 18.2077 13.8814 18.2265 13.7822 18.2467C13.7495 18.2533 13.716 18.2602 13.6812 18.2676L13.6812 18.2676C13.5412 18.2876 13.4012 18.3076 13.2512 18.3176C13.1112 18.3276 12.9712 18.3376 12.8312 18.3376H12.8012C12.7012 18.3376 12.6012 18.3376 12.5012 18.3276H12.5012C12.4812 18.3276 12.4612 18.3276 12.4412 18.3176C12.3112 18.3176 12.1912 18.2976 12.0712 18.2776C12.0278 18.2689 11.9852 18.2611 11.9432 18.2533L11.9431 18.2533C11.8401 18.2343 11.7407 18.216 11.6412 18.1876C11.5012 18.1576 11.3712 18.1176 11.2312 18.0676C10.9612 17.9776 10.7012 17.8676 10.4512 17.7376C10.3778 17.6948 10.3044 17.6482 10.2287 17.6002C10.1807 17.5697 10.1317 17.5387 10.0812 17.5076C9.37125 17.0376 8.79124 16.3876 8.39124 15.6376C8.32124 15.5076 8.26124 15.3876 8.21124 15.2476C8.11124 15.0076 8.03125 14.7676 7.97125 14.5176C7.93125 14.3476 7.89125 14.1676 7.87125 13.9876C7.84125 13.7676 7.83125 13.5476 7.83125 13.3376C7.83125 13.1776 7.84124 13.0076 7.86124 12.8476C7.87124 12.6776 7.89124 12.5076 7.93124 12.3476C7.96124 12.1776 8.00125 12.0276 8.05125 11.8676C8.20125 11.4076 8.40124 10.9676 8.68124 10.5676C8.85124 10.3076 9.05124 10.0576 9.29124 9.82762C9.51124 9.59762 9.76124 9.38762 10.0312 9.21762C10.0683 9.18795 10.1054 9.16379 10.1466 9.13697L10.1466 9.13694L10.171 9.12099L10.1812 9.13758C10.1912 9.13758 10.1912 9.14758 10.1912 9.14758C10.3512 9.36758 10.5712 9.53758 10.8212 9.65758C11.0412 9.76758 11.2812 9.81758 11.5112 9.81758C11.7012 9.81758 11.8912 9.77758 12.0712 9.71758C12.4812 9.56758 12.8212 9.25758 13.0012 8.86757C13.0712 8.71758 13.1112 8.56758 13.1412 8.40758V8.39758L13.1432 8.38764L13.1612 8.38772C13.3052 8.39672 13.441 8.4138 13.5833 8.4317L13.5833 8.43171L13.6312 8.43772C13.8012 8.46772 13.9812 8.50772 14.1512 8.54772C14.5712 8.66772 14.9812 8.83772 15.3512 9.05772C15.4212 9.10272 15.4937 9.15022 15.5662 9.19772C15.6387 9.24522 15.7112 9.29272 15.7812 9.33772C15.8104 9.3614 15.8398 9.38507 15.8695 9.40887L15.8695 9.40889L15.8695 9.40891C16.0025 9.51576 16.1386 9.62505 16.2612 9.74772H17.2412L17.2412 9.74769C16.9812 9.4877 16.7112 9.21771 16.4212 8.97772C16.4012 8.95772 16.3787 8.94022 16.3562 8.92272C16.3337 8.90522 16.3112 8.88772 16.2912 8.86772C16.1909 8.79243 16.0865 8.72108 15.9807 8.64873L15.9807 8.64869C15.9179 8.60573 15.8546 8.56242 15.7912 8.51772L15.7912 8.51772C15.7612 8.49772 15.7312 8.47772 15.6912 8.45772C15.6512 8.43273 15.6113 8.41023 15.5713 8.38774L15.5712 8.38772L15.5712 8.38771C15.5312 8.36521 15.4912 8.34272 15.4512 8.31772C15.2512 8.20772 15.0412 8.10772 14.8412 8.03772C14.4212 7.87772 13.9812 7.76772 13.5212 7.70772C13.473 7.70428 13.4248 7.69965 13.377 7.69506C13.286 7.68632 13.1965 7.67772 13.1112 7.67772L13.0942 7.67611C12.9514 7.24555 12.654 6.88415 12.2212 6.67758C11.8212 6.48758 11.3712 6.46757 10.9712 6.61757C10.5512 6.76757 10.2212 7.06758 10.0312 7.46758C9.88554 7.77836 9.84361 8.11742 9.90544 8.44815C9.88746 8.4514 9.87027 8.46858 9.86124 8.47761C9.70124 8.57761 9.55125 8.67762 9.40125 8.78761C8.41125 9.50762 7.71124 10.5076 7.36124 11.6576C7.34624 11.7026 7.33374 11.7476 7.32124 11.7926C7.30874 11.8376 7.29624 11.8826 7.28124 11.9276C7.23124 12.1176 7.19124 12.2976 7.17124 12.4876C7.16624 12.5276 7.16124 12.5651 7.15625 12.6026L7.15624 12.6026L7.15622 12.6028C7.15123 12.6402 7.14624 12.6777 7.14124 12.7176C7.11124 12.9276 7.09124 13.1476 7.10124 13.3576C7.10124 13.4776 7.10124 13.5976 7.11124 13.7076C7.11124 13.7892 7.12048 13.8753 7.12953 13.9598C7.13381 13.9997 7.13804 14.0392 7.14124 14.0776C7.14124 14.0876 7.14374 14.0976 7.14624 14.1076C7.14874 14.1176 7.15125 14.1276 7.15125 14.1376C7.17125 14.2676 7.19124 14.3876 7.21124 14.5076C7.21583 14.5214 7.21831 14.5351 7.22062 14.5479C7.22335 14.563 7.22583 14.5768 7.23125 14.5876C7.26125 14.7376 7.30124 14.8976 7.35124 15.0476V15.0576C7.40124 15.2176 7.46124 15.3676 7.52124 15.5176C8.15124 17.0276 9.43125 18.2276 10.9712 18.7576C11.4312 18.9076 11.9212 19.0076 12.4312 19.0476C12.4912 19.0476 12.5512 19.0501 12.6112 19.0526C12.6712 19.0551 12.7312 19.0576 12.7912 19.0576C13.1412 19.0576 13.4812 19.0276 13.8212 18.9676C13.849 18.9614 13.8758 18.9562 13.9022 18.9511L13.9023 18.9511L13.9023 18.9511C13.9616 18.9395 14.019 18.9284 14.0812 18.9076C14.1412 18.9076 14.2012 18.8876 14.2612 18.8676C14.3612 18.8476 14.4512 18.8176 14.5412 18.7876C14.8112 18.7076 15.0712 18.5976 15.3212 18.4776C15.9012 18.1776 16.5812 18.2776 17.0112 18.7076C17.2812 18.9876 17.4312 19.3476 17.4312 19.7276C17.4312 20.2676 17.1412 20.7376 16.6812 20.9676C15.4012 21.6376 13.9412 21.9476 12.4712 21.8976C9.0298 21.7623 5.90608 19.4215 4.75329 16.1491C4.97196 16.0491 5.17052 15.8986 5.33124 15.6977C5.90124 14.9977 5.81124 13.9577 5.11124 13.3777C4.86151 13.1708 4.56849 13.0504 4.26853 13.013C4.45508 8.46643 8.21034 4.81774 12.8113 4.81774C14.4313 4.81774 16.0113 5.27774 17.3713 6.14774C18.2013 6.67774 19.3013 6.53774 20.0013 5.83774C20.4113 5.43774 20.6313 4.88774 20.6313 4.30774C20.6313 3.58774 20.2713 2.92774 19.6813 2.54774C17.0813 0.90774 13.9613 0.247741 10.8713 0.697741C10.5953 0.735037 10.3082 0.789023 10.0058 0.855551C9.83944 0.553287 9.58263 0.310273 9.26126 0.157625C8.44126 -0.232375 7.46126 0.127626 7.07126 0.947626C6.91687 1.27619 6.88002 1.62826 6.9427 1.95731C3.16257 3.91163 0.549817 7.68999 0.081241 11.8877C-0.336189 15.6348 0.867287 19.316 3.40807 22.053C3.17883 22.3747 3.07488 22.7579 3.11122 23.1576C3.15122 23.5876 3.36122 23.9876 3.70122 24.2676C4.00122 24.5176 4.37122 24.6476 4.75122 24.6476H4.91122C5.29117 24.6122 5.64768 24.4442 5.91869 24.171C7.97625 25.4921 10.353 26.1877 12.8213 26.1877C16.0513 26.1877 19.1513 24.9777 21.5313 22.7677L21.5375 22.7622C21.7984 22.9241 22.0966 23.0077 22.4013 23.0077H22.4013C22.4513 23.0077 22.5013 23.0077 22.5613 22.9877C22.9913 22.9477 23.3913 22.7377 23.6713 22.3977C23.9513 22.0577 24.0813 21.6377 24.0413 21.1977C24.0013 20.7677 23.7913 20.3677 23.4513 20.0877C22.7513 19.5077 21.7113 19.6077 21.1313 20.3077C20.6654 20.8798 20.6404 21.6789 21.0289 22.2685C18.7919 24.3453 15.8811 25.4877 12.8313 25.4877C10.4996 25.4877 8.25076 24.8248 6.29684 23.5696C6.52482 22.9338 6.35152 22.1935 5.80122 21.7376C5.26234 21.2911 4.52195 21.2476 3.94506 21.5706C1.55175 18.9908 0.403046 15.5028 0.801238 11.9677C1.23844 8.02315 3.68617 4.4751 7.22738 2.61654C7.38582 2.8349 7.60024 3.01666 7.86126 3.13762ZM4.07545 22.3575C4.10146 22.3418 4.12682 22.3221 4.15124 22.2977C4.16601 22.2839 4.17934 22.2691 4.1912 22.2534C4.35602 22.1282 4.55087 22.0676 4.75122 22.0676C4.96122 22.0676 5.17121 22.1376 5.34121 22.2876C5.73121 22.6176 5.79122 23.1976 5.46122 23.5976C5.30122 23.7876 5.08122 23.9076 4.83122 23.9276C4.58122 23.9476 4.34122 23.8776 4.15122 23.7176C3.96122 23.5576 3.84122 23.3376 3.82122 23.0876C3.80122 22.8376 3.87122 22.5976 4.03122 22.4076C4.04557 22.3902 4.06032 22.3735 4.07545 22.3575ZM4.29904 15.5611C4.48134 15.5135 4.65141 15.4112 4.78124 15.2577C5.11124 14.8677 5.05124 14.2777 4.66124 13.9477C4.49124 13.7977 4.28124 13.7277 4.07124 13.7277C3.80124 13.7277 3.54124 13.8377 3.35124 14.0677C3.02124 14.4677 3.08124 15.0477 3.47124 15.3777C3.67207 15.5477 3.92594 15.6142 4.17002 15.5855C4.17698 15.5826 4.18406 15.58 4.19124 15.5776C4.22715 15.5663 4.26342 15.561 4.29904 15.5611ZM7.73802 2.11429C7.83009 2.28041 7.97432 2.42012 8.16126 2.50763C8.39126 2.61763 8.64126 2.62763 8.87126 2.53763C9.10126 2.44763 9.29126 2.27763 9.40126 2.05763C9.49792 1.85552 9.51736 1.63798 9.4596 1.43213C9.44773 1.40884 9.43817 1.38396 9.43127 1.35774C9.42922 1.34995 9.42746 1.34216 9.42597 1.33438C9.33469 1.11034 9.16702 0.925506 8.95126 0.817625C8.82126 0.747625 8.69126 0.727625 8.56126 0.727625C8.21126 0.727625 7.87126 0.927626 7.71126 1.26763C7.61278 1.47801 7.59846 1.70442 7.65484 1.91008C7.67264 1.93058 7.68828 1.95319 7.70124 1.97765C7.72347 2.02212 7.73533 2.06842 7.73802 2.11429ZM12.3312 7.67758L12.3371 7.68727L12.3312 7.68772C12.4145 7.82223 12.4567 7.97724 12.458 8.13438C12.4577 8.21924 12.4454 8.3046 12.4212 8.38758C12.4149 8.40983 12.4095 8.43007 12.4045 8.44893L12.4044 8.44924L12.4044 8.44931L12.4044 8.44941C12.3938 8.48964 12.3848 8.52361 12.3712 8.55758C12.2612 8.78758 12.0812 8.95758 11.8412 9.03758C11.6112 9.12758 11.3612 9.10758 11.1312 8.99758C11.0212 8.94758 10.9212 8.87758 10.8412 8.78758C10.7843 8.73067 10.7364 8.65576 10.6889 8.5714C10.6875 8.56308 10.6851 8.55535 10.6812 8.54761C10.6786 8.5436 10.6761 8.5396 10.6737 8.53559C10.6671 8.51692 10.6596 8.49826 10.6487 8.4796L10.6412 8.45761C10.6384 8.45228 10.6354 8.44703 10.6323 8.44188C10.5983 8.33896 10.582 8.22752 10.5912 8.10758H10.6012C10.6012 7.98758 10.6312 7.85758 10.6812 7.74758C10.7912 7.52758 10.9712 7.35758 11.2112 7.26758C11.3112 7.22758 11.4212 7.20757 11.5312 7.20757C11.6612 7.20757 11.7912 7.23758 11.9212 7.29757C12.1012 7.38758 12.2412 7.51758 12.3312 7.67758ZM13.4668 8.43444L13.4668 8.43444H13.4668H13.4668H13.4668H13.4668H13.4668H13.4668C13.521 8.44257 13.5755 8.45075 13.6312 8.45772C13.4812 8.42772 13.3212 8.40772 13.1612 8.39772C13.2655 8.40424 13.3655 8.41924 13.4668 8.43444ZM14.1512 8.56772C14.5712 8.68772 14.9812 8.85772 15.3512 9.07772C14.9712 8.84772 14.5712 8.67772 14.1512 8.56772ZM27.5712 10.0675C28.6012 8.6275 30.2912 7.6875 32.2012 7.6875C35.3412 7.6875 37.8912 10.2375 37.8912 13.3775C37.8912 16.5175 35.3312 19.0775 32.1912 19.0775C30.5712 19.0775 29.1012 18.4075 28.0712 17.3075C27.9782 17.2107 27.8887 17.1107 27.8027 17.0076H16.3109C17.2449 16.0388 17.7713 14.7529 17.7713 13.3676C17.7713 12.2776 17.4313 11.2276 16.8113 10.3376H27.3856C27.4449 10.2457 27.5068 10.1556 27.5712 10.0675ZM16.3109 17.0076L16.3013 17.0176V17.0076H16.3109ZM29.1212 17.3075C29.9712 17.9775 31.0512 18.3675 32.2012 18.3675C34.9412 18.3675 37.1812 16.1275 37.1712 13.3775C37.1712 10.6375 34.9412 8.3975 32.1912 8.3975C30.7112 8.3975 29.3712 9.0475 28.4712 10.0675C27.6812 10.9575 27.2012 12.1175 27.2012 13.3875C27.2012 14.9775 27.9512 16.3975 29.1212 17.3075ZM11.9612 10.7676H13.6612V12.5176H15.4212V14.2176H13.6612V15.9776H11.9612V14.2176H10.2112V12.5176H11.9612V10.7676ZM32.1912 12.6275C32.6551 12.6275 33.0312 12.2514 33.0312 11.7875C33.0312 11.3236 32.6551 10.9475 32.1912 10.9475C31.7273 10.9475 31.3512 11.3236 31.3512 11.7875C31.3512 12.2514 31.7273 12.6275 32.1912 12.6275ZM33.0312 14.9775C33.0312 15.4414 32.6551 15.8175 32.1912 15.8175C31.7273 15.8175 31.3512 15.4414 31.3512 14.9775C31.3512 14.5135 31.7273 14.1375 32.1912 14.1375C32.6551 14.1375 33.0312 14.5135 33.0312 14.9775ZM33.7912 14.2176C34.2552 14.2176 34.6312 13.8415 34.6312 13.3776C34.6312 12.9137 34.2552 12.5376 33.7912 12.5376C33.3273 12.5376 32.9512 12.9137 32.9512 13.3776C32.9512 13.8415 33.3273 14.2176 33.7912 14.2176ZM31.4312 13.3776C31.4312 13.8415 31.0551 14.2176 30.5912 14.2176C30.1273 14.2176 29.7512 13.8415 29.7512 13.3776C29.7512 12.9137 30.1273 12.5376 30.5912 12.5376C31.0551 12.5376 31.4312 12.9137 31.4312 13.3776ZM22.4013 20.4277C22.1313 20.4277 21.8713 20.5377 21.6813 20.7677C21.3513 21.1677 21.4113 21.7477 21.8013 22.0777C22.2013 22.4077 22.7813 22.3477 23.1113 21.9577C23.2713 21.7677 23.3413 21.5277 23.3213 21.2777C23.3013 21.0277 23.1813 20.8077 22.9913 20.6477C22.8213 20.4977 22.6113 20.4277 22.4013 20.4277Z" fill="url(#paint0_linear_118_901)"/>
<path fill-rule="evenodd" clip-rule="evenodd" d="M55.21 18.81V7H56.01V18.81H55.21ZM48.78 18.8901C47.95 18.8901 47.18 18.7501 46.48 18.4701C45.77 18.1901 45.16 17.7901 44.64 17.2801C44.12 16.7701 43.72 16.1701 43.43 15.4901C43.14 14.8101 43 14.0601 43 13.2401C43 12.4201 43.14 11.6701 43.43 10.9901C43.72 10.3101 44.12 9.71009 44.65 9.20009C45.18 8.69009 45.79 8.29009 46.49 8.01009C47.19 7.73009 47.95 7.59009 48.78 7.59009C49.56 7.59009 50.3 7.72009 50.98 7.97009C51.66 8.23009 52.25 8.61009 52.74 9.13009L52.23 9.65009C51.75 9.18009 51.22 8.85009 50.65 8.64009C50.07 8.43009 49.46 8.33009 48.81 8.33009C48.1 8.33009 47.44 8.45009 46.83 8.70009C46.22 8.94009 45.69 9.29009 45.24 9.74009C44.79 10.1901 44.44 10.7101 44.19 11.3001C43.94 11.9001 43.82 12.5401 43.82 13.2401C43.82 13.9401 43.95 14.5901 44.19 15.1801C44.44 15.7801 44.79 16.2901 45.24 16.7401C45.69 17.1901 46.22 17.5301 46.83 17.7801C47.44 18.0201 48.1 18.1501 48.81 18.1501C49.46 18.1501 50.07 18.0501 50.65 17.8401C51.23 17.6301 51.76 17.2901 52.23 16.8101L52.74 17.3301C52.25 17.8501 51.67 18.2401 50.98 18.5001C50.3 18.7601 49.56 18.8901 48.78 18.8901ZM60.52 18.3299C61.16 18.6899 61.9 18.8699 62.74 18.8699C63.37 18.8699 63.96 18.7599 64.5 18.5299C65.04 18.2999 65.5 17.9599 65.86 17.5199L65.4 16.9899C65.08 17.3899 64.69 17.6799 64.23 17.8699C63.77 18.0599 63.27 18.1599 62.74 18.1599C62.07 18.1599 61.46 18.0099 60.93 17.7199C60.4 17.4199 59.98 17.0199 59.68 16.4899C59.4038 16.0019 59.2547 15.4545 59.2328 14.8399H66.39C66.39 14.7999 66.39 14.7599 66.4 14.7199C66.41 14.69 66.41 14.65 66.41 14.62V14.6199C66.41 13.7899 66.23 13.0599 65.89 12.4299C65.54 11.7999 65.07 11.3099 64.47 10.9599C63.87 10.6099 63.2 10.4299 62.44 10.4299C61.68 10.4299 61 10.6099 60.4 10.9699C59.8 11.3299 59.32 11.8299 58.98 12.4599C58.63 13.0899 58.46 13.8199 58.46 14.6499C58.46 15.4699 58.64 16.1899 59.01 16.8299C59.37 17.4699 59.88 17.9699 60.52 18.3299ZM59.2407 14.2199C59.277 13.6903 59.4062 13.2142 59.64 12.7799C59.92 12.2699 60.3 11.8599 60.78 11.5699C61.26 11.2799 61.81 11.1299 62.43 11.1299C63.06 11.1299 63.61 11.2799 64.09 11.5699C64.57 11.8599 64.95 12.2599 65.23 12.7799C65.4746 13.2101 65.6054 13.6901 65.6343 14.2199H59.2407ZM70.87 18.8699C70.25 18.8699 69.72 18.7699 69.27 18.5799C68.82 18.3799 68.47 18.1099 68.23 17.7399C67.99 17.3799 67.87 16.9699 67.87 16.4999C67.87 16.0799 67.97 15.6899 68.16 15.3499C68.36 15.0099 68.68 14.7199 69.14 14.5099C69.6 14.2899 70.21 14.1799 70.97 14.1799H73.83V13.5099C73.83 12.7399 73.62 12.1499 73.2 11.7399C72.78 11.3399 72.17 11.1399 71.36 11.1399C70.79 11.1399 70.25 11.2399 69.76 11.4299C69.27 11.6199 68.84 11.8799 68.49 12.1899L68.1 11.6099C68.51 11.2399 69.01 10.9499 69.6 10.7399C70.18 10.5299 70.79 10.4299 71.43 10.4299C72.46 10.4299 73.25 10.6899 73.8 11.2099C74.35 11.7299 74.63 12.5099 74.63 13.5299V18.7999H73.86V17.3014C73.6341 17.7208 73.3141 18.0716 72.9 18.3399C72.38 18.6999 71.7 18.8699 70.87 18.8699ZM70.99 14.7999H73.83V16.3845L73.82 16.3599C73.59 16.9599 73.23 17.4199 72.75 17.7399C72.26 18.0599 71.67 18.2199 70.97 18.2199C70.24 18.2199 69.67 18.0599 69.27 17.7399C68.86 17.4299 68.66 16.9999 68.66 16.4699C68.66 15.9999 68.84 15.5999 69.18 15.2799C69.53 14.9599 70.13 14.7999 70.99 14.7999ZM83.74 10.8299C83.24 10.5699 82.65 10.4399 81.97 10.4399C81.12 10.4399 80.4 10.6199 79.81 11.0199C79.2993 11.3402 78.916 11.7729 78.66 12.3115V10.5199H77.9V18.8299H78.7V14.3999C78.7 13.7299 78.82 13.1599 79.07 12.6799C79.32 12.2099 79.68 11.8399 80.16 11.5699C80.64 11.2999 81.2 11.1699 81.85 11.1699C82.7 11.1699 83.36 11.4099 83.83 11.8999C84.3 12.3899 84.54 13.0999 84.54 14.0299V18.8199H85.34V13.9599C85.34 13.1799 85.2 12.5299 84.92 12.0099C84.64 11.4799 84.24 11.0899 83.74 10.8299ZM88.88 18.8099V7.66992H92.88C93.81 7.66992 94.62 7.81992 95.28 8.11992C95.95 8.41992 96.46 8.84992 96.82 9.39992C97.18 9.95992 97.36 10.6299 97.36 11.4299C97.36 12.2099 97.18 12.8699 96.82 13.4299C96.46 13.9899 95.94 14.4199 95.28 14.7199C95.1081 14.7969 94.9276 14.864 94.7386 14.9212L97.53 18.8099H96.61L93.9443 15.0964C93.6108 15.1454 93.256 15.1699 92.88 15.1699H89.7V18.8199H88.88V18.8099ZM92.87 14.4499H89.69V8.38992H92.87C94.07 8.38992 94.98 8.65992 95.6 9.17992C96.22 9.70992 96.53 10.4499 96.53 11.4199C96.53 12.3799 96.22 13.1199 95.6 13.6499C94.98 14.1899 94.07 14.4499 92.87 14.4499ZM100.34 7.66992V18.8099H107.57V18.0799H101.15V7.66992H100.34Z" fill="url(#paint1_linear_118_901)"/>
<defs>
<linearGradient id="paint0_linear_118_901" x1="3" y1="27" x2="23" y2="12" gradientUnits="userSpaceOnUse">
<stop stop-color="#A8CD36"/>
<stop offset="1" stop-color="#55BEC3"/>
</linearGradient>
<linearGradient id="paint1_linear_118_901" x1="47" y1="22.5" x2="102" y2="6" gradientUnits="userSpaceOnUse">
<stop stop-color="#9BCB4D"/>
<stop offset="1" stop-color="#55BEC3"/>
</linearGradient>
</defs>
</svg>
