<?xml version="1.0" encoding="utf-8"?>
<!-- Generator: Adobe Illustrator 25.0.0, SVG Export Plug-In . SVG Version: 6.00 Build 0)  -->
<svg version="1.1" id="Layer_1" xmlns="http://www.w3.org/2000/svg" xmlns:xlink="http://www.w3.org/1999/xlink" x="0px" y="0px"
	 viewBox="0 0 3000 873.5" style="enable-background:new 0 0 3000 873.5;" xml:space="preserve">
<style type="text/css">
	.st0{fill:#00063C;}
	.st1{fill:#FFF682;}
	.st2{fill:#2CDDB3;}
	.st3{fill:#090046;}
	.st4{fill:#FFFFFF;}
</style>
<g>
	<path class="st2" d="M720,294.8V188L566.8,99.5l-92.6,53.4l-92.6-53.4L228.4,188v106.8l-92.5,53.4v177.1l92.5,53.3v107L381.6,774
		l92.6-53.4l92.6,53.4L720,685.5v-107l92.6-53.4V348.2L720,294.8z M779.5,506l-80.4,46.4H552.6v111.4h33.1v-78.3h101.2v81
		l-120.1,69.3l-76.2-43.9V550.7H379.3v33.1h78.3v108.2l-76,43.8l-120.1-69.3v-90.7L363.3,474l-78.7-78.7l-23.4,23.4l55.4,55.3
		l-74.3,74.3L169,506.2V367.3l80.3-46.4h146.4V209.6h-33.1v78.3H261.5V207l120.1-69.3l76,43.8v141.2h111.4v-33.1h-78.3V181.6
		l76.2-43.9L686.9,207v90.5L585.1,399.3l78.7,78.7l23.4-23.4l-55.4-55.3l74.3-74.3l73.3,42.3V506z"/>
	<g>
		<path class="st3" d="M981.8,426.8c0-91,69.7-156.8,163.3-156.8c49.7,0,92.3,17.9,120.6,51l-36.6,34.4
			c-22.2-24-49.7-35.7-81.4-35.7c-63.1,0-108.9,44.4-108.9,107.1c0,62.7,45.7,107.1,108.9,107.1c31.8,0,59.2-11.8,81.4-36.1
			l36.6,34.8c-28.3,33.1-71,51-121.1,51C1051.5,583.6,981.8,517.8,981.8,426.8z"/>
		<path class="st3" d="M1315,506.5V256.1h54.4v246.5c0,22.7,10.9,34.8,32.7,34.8c7.4,0,15.2-2.2,19.6-4.4l2.6,43.6
			c-10.4,3.9-21.8,5.7-32.7,5.7C1343.3,582.3,1315,554.8,1315,506.5z"/>
		<path class="st3" d="M1630.7,510.8l28.7,33.5c-20.5,24.8-53.1,37.9-93.2,37.9c-77.9,0-128.5-50.1-128.5-119.3
			c0-69.2,50.5-118.9,119.8-118.9c64.9,0,117.1,43.5,117.6,116.3L1497,495.2c11.3,26.6,36.6,40.9,70.5,40.9
			C1593.7,536.1,1613.7,527.8,1630.7,510.8z M1490.5,459.9v0.4l131.5-25.3c-7.4-28.3-31.8-47.5-64.5-47.5
			C1517.9,387.6,1490.5,415.5,1490.5,459.9z"/>
		<path class="st3" d="M1954.7,346.7v232.6h-51.8v-30c-18.3,22.2-45.3,33.1-77.1,33.1c-67.9,0-117.6-47-117.6-119.3
			c0-72.3,49.7-118.9,117.6-118.9c29.6,0,55.7,10,74.5,30.9v-28.3H1954.7z M1901.2,462.9c0-44.4-29.6-72.7-69.2-72.7
			c-39.2,0-68.8,28.3-68.8,72.7c0,44.4,29.6,72.7,68.8,72.7C1871.6,535.7,1901.2,507.4,1901.2,462.9z"/>
		<path class="st3" d="M2255.2,446v133.3h-54.4V452.9c0-41.4-20.5-61.4-55.3-61.4c-38.8,0-64.9,23.5-64.9,70.1v117.6h-54.4V346.7
			h51.8v30c17.9-21.3,46.2-32.7,80.1-32.7C2213.9,344.1,2255.2,375.8,2255.2,446z"/>
		<path class="st3" d="M2529.2,579.2l-62.3-89.3c-3.9,0.4-7.8,0.4-11.8,0.4h-68.8v88.8h-56.6V274.4h125.4
			c80.1,0,129.8,40.9,129.8,108.4c0,46.2-23.5,80.1-64.9,96.2l70.1,100.2H2529.2z M2452.5,322.3h-66.2v121.5h66.2
			c49.6,0,75.3-22.6,75.3-61S2502.2,322.3,2452.5,322.3z"/>
		<path class="st3" d="M2648.1,274.4h56.6v256.9h159.4v47.9h-216V274.4z"/>
	</g>
</g>
</svg>
