<svg width="97" height="27" viewBox="0 0 97 27" fill="none" xmlns="http://www.w3.org/2000/svg">
<path d="M15.5536 12.6274H10.3036V14.3474H15.5536V12.6274Z" fill="url(#paint0_linear_114_5)"/>
<path d="M13.7937 10.8574H12.0737V16.1074H13.7937V10.8574Z" fill="url(#paint1_linear_114_5)"/>
<path d="M32.4937 12.7273C32.9631 12.7273 33.3437 12.3468 33.3437 11.8773C33.3437 11.4079 32.9631 11.0273 32.4937 11.0273C32.0242 11.0273 31.6437 11.4079 31.6437 11.8773C31.6437 12.3468 32.0242 12.7273 32.4937 12.7273Z" fill="url(#paint2_linear_114_5)"/>
<path d="M32.4937 15.9573C32.9631 15.9573 33.3437 15.5768 33.3437 15.1073C33.3437 14.6379 32.9631 14.2573 32.4937 14.2573C32.0242 14.2573 31.6437 14.6379 31.6437 15.1073C31.6437 15.5768 32.0242 15.9573 32.4937 15.9573Z" fill="url(#paint3_linear_114_5)"/>
<path d="M34.1037 14.3475C34.5731 14.3475 34.9537 13.9669 34.9537 13.4975C34.9537 13.028 34.5731 12.6475 34.1037 12.6475C33.6342 12.6475 33.2537 13.028 33.2537 13.4975C33.2537 13.9669 33.6342 14.3475 34.1037 14.3475Z" fill="url(#paint4_linear_114_5)"/>
<path d="M30.8737 14.3475C31.3431 14.3475 31.7237 13.9669 31.7237 13.4975C31.7237 13.028 31.3431 12.6475 30.8737 12.6475C30.4042 12.6475 30.0237 13.028 30.0237 13.4975C30.0237 13.9669 30.4042 14.3475 30.8737 14.3475Z" fill="url(#paint5_linear_114_5)"/>
<path d="M16.4537 17.1675C17.4037 16.1875 17.9337 14.8875 17.9337 13.4875C17.9337 12.3875 17.5937 11.3275 16.9637 10.4375H28.1437C27.5137 11.3275 27.1637 12.3875 27.1637 13.4975C27.1637 14.8875 27.6937 16.1875 28.6337 17.1675H16.4537Z" fill="url(#paint6_linear_114_5)"/>
<path d="M32.4937 7.74731C30.5737 7.74731 28.8637 8.69732 27.8237 10.1473C27.1437 11.0873 26.7437 12.2473 26.7437 13.4973C26.7437 15.0273 27.3436 16.4173 28.3336 17.4573C29.3736 18.5673 30.8537 19.2473 32.4937 19.2473C35.6637 19.2473 38.2437 16.6673 38.2437 13.4973C38.2437 10.3273 35.6637 7.74731 32.4937 7.74731ZM32.4937 18.5173C31.3337 18.5173 30.2437 18.1173 29.3937 17.4473C28.2137 16.5273 27.4637 15.0973 27.4637 13.4873C27.4637 12.1973 27.9436 11.0273 28.7536 10.1373C29.6636 9.10731 31.0136 8.45732 32.5036 8.45732C35.2736 8.45732 37.5337 10.7173 37.5337 13.4873C37.5337 16.2573 35.2637 18.5173 32.4937 18.5173Z" fill="url(#paint7_linear_114_5)"/>
<path d="M16.5737 9.0473C16.5337 9.0073 16.4837 8.97731 16.4437 8.93731C16.2837 8.81731 16.1137 8.6973 15.9437 8.5873C15.9137 8.5673 15.8837 8.54731 15.8437 8.52731C15.7637 8.47731 15.6837 8.4373 15.6037 8.3873C15.4037 8.2773 15.1937 8.1773 14.9837 8.1073C14.5637 7.9473 14.1137 7.83731 13.6437 7.77731C13.5037 7.76731 13.3637 7.7473 13.2237 7.7473C13.1237 7.7373 13.0337 7.7373 12.9337 7.7373H12.8537C12.8437 7.7373 12.8437 7.7373 12.8437 7.7373C12.7037 7.7373 12.5737 7.74731 12.4437 7.75731C12.5737 7.96731 12.6137 8.2273 12.5337 8.4773C12.6637 8.4673 12.7937 8.45731 12.9337 8.45731C13.0437 8.45731 13.1737 8.4673 13.2837 8.4673C13.4437 8.4773 13.6037 8.4973 13.7537 8.5173C13.9237 8.5473 14.1037 8.5873 14.2737 8.6273C14.6937 8.7473 15.1037 8.9173 15.4837 9.1473C15.6237 9.2373 15.7737 9.33731 15.9137 9.43731C16.0837 9.56731 16.2437 9.7073 16.3937 9.8573H17.3737C17.1437 9.5673 16.8737 9.2873 16.5737 9.0473ZM13.2837 8.4673C13.4437 8.4773 13.6037 8.50731 13.7537 8.52731C13.6037 8.49731 13.4437 8.4773 13.2837 8.4673ZM14.2837 8.6373C14.7037 8.7573 15.1137 8.9273 15.4937 9.1573C15.1137 8.9173 14.7037 8.7473 14.2837 8.6373Z" fill="url(#paint8_linear_114_5)"/>
<path d="M12.9437 26.4174C10.3437 26.4174 7.84366 25.6474 5.69366 24.1974C5.53366 24.0874 5.48366 23.8674 5.59366 23.6974C5.70366 23.5374 5.92366 23.4874 6.09366 23.5974C8.11366 24.9674 10.4837 25.6974 12.9337 25.6974C16.0137 25.6974 18.9637 24.5374 21.2337 22.4274C21.3837 22.2974 21.6037 22.2974 21.7437 22.4474C21.8837 22.5974 21.8737 22.8174 21.7237 22.9574C19.3237 25.1874 16.2037 26.4174 12.9437 26.4174Z" fill="url(#paint9_linear_114_5)"/>
<path d="M18.3137 19.9175C18.3137 20.7175 17.8737 21.4475 17.1737 21.8175C15.8637 22.4775 14.4037 22.8275 12.9137 22.8275C12.8037 22.8275 12.6837 22.8275 12.5737 22.8175C8.62367 22.6475 5.18367 19.9775 4.01367 16.1675C3.95367 15.9775 4.06367 15.7675 4.25367 15.7175C4.44367 15.6575 4.65367 15.7675 4.70367 15.9575C5.76367 19.4375 9.01367 21.9575 12.6037 22.1075C14.0937 22.1575 15.5537 21.8375 16.8537 21.1775C17.3237 20.9375 17.6037 20.4675 17.6037 19.9275C17.6037 19.5375 17.4537 19.1775 17.1837 18.8975C16.7437 18.4675 16.0637 18.3675 15.4837 18.6575C15.2337 18.7775 14.9737 18.8875 14.7037 18.9675C14.6137 18.9975 14.5237 19.0275 14.4237 19.0475C14.3637 19.0675 14.3037 19.0875 14.2437 19.0875C14.1537 19.1175 14.0737 19.1275 13.9837 19.1475C13.6437 19.2075 13.2937 19.2375 12.9537 19.2375C12.8337 19.2375 12.7137 19.2275 12.5837 19.2275C12.0737 19.1875 11.5737 19.0875 11.1137 18.9375C9.55367 18.3975 8.27367 17.1875 7.63367 15.6675C7.57367 15.5175 7.51367 15.3675 7.46367 15.2075C7.46367 15.2075 7.46367 15.2075 7.46367 15.1975C7.41367 15.0475 7.37367 14.8875 7.34367 14.7275C7.33367 14.7075 7.33367 14.6775 7.32367 14.6475C7.30367 14.5275 7.28367 14.4075 7.26367 14.2775C7.26367 14.2575 7.25367 14.2375 7.25367 14.2175C7.24367 14.0975 7.22367 13.9675 7.22367 13.8475C7.21367 13.7375 7.21367 13.6075 7.21367 13.4975C7.20367 13.2775 7.22367 13.0675 7.25367 12.8475C7.26367 12.7675 7.27367 12.6975 7.28367 12.6175C7.30367 12.4275 7.34367 12.2475 7.40367 12.0575C7.43367 11.9675 7.45367 11.8775 7.48367 11.7875C7.83367 10.6275 8.54367 9.61748 9.53367 8.89748C9.68367 8.78748 9.83367 8.68748 9.99367 8.58748C10.0037 8.57748 10.0237 8.55748 10.0437 8.55748C10.1037 8.51748 10.1637 8.47748 10.2337 8.44748C10.2537 8.43748 10.2837 8.41748 10.3037 8.40748C10.3137 8.39748 10.3337 8.39748 10.3437 8.39748C10.5137 8.33748 10.6937 8.41748 10.7837 8.56748C10.7937 8.59748 10.8037 8.62748 10.8237 8.65748C10.8337 8.67748 10.8337 8.69748 10.8337 8.72748C10.8337 8.88748 10.7437 9.01748 10.6037 9.06748C10.5137 9.11748 10.4137 9.16748 10.3337 9.22748C10.2737 9.26748 10.2137 9.29748 10.1637 9.33748C9.89367 9.50748 9.64367 9.71748 9.41367 9.94748C9.17367 10.1775 8.96367 10.4275 8.79367 10.6975C8.51367 11.0975 8.30367 11.5475 8.16367 12.0075C8.11367 12.1675 8.07367 12.3275 8.04367 12.4875C8.00367 12.6575 7.98367 12.8175 7.97367 12.9875C7.95367 13.1575 7.94367 13.3175 7.94367 13.4875C7.94367 13.7075 7.95367 13.9175 7.98367 14.1375C8.00367 14.3175 8.04367 14.4975 8.08367 14.6675C8.14367 14.9175 8.22367 15.1675 8.32367 15.3975C8.37367 15.5375 8.43367 15.6675 8.50367 15.7975C8.90367 16.5575 9.49367 17.2175 10.2037 17.6875C10.3337 17.7675 10.4537 17.8475 10.5737 17.9175C10.8237 18.0475 11.0837 18.1575 11.3537 18.2575C11.4937 18.3075 11.6237 18.3475 11.7737 18.3775C11.9137 18.4175 12.0637 18.4375 12.2037 18.4675C12.3237 18.4875 12.4437 18.5075 12.5737 18.5075C12.5937 18.5175 12.6137 18.5175 12.6337 18.5175C12.7337 18.5275 12.8337 18.5275 12.9337 18.5275H12.9637C13.1037 18.5275 13.2437 18.5175 13.3837 18.5075C13.5337 18.4975 13.6737 18.4775 13.8137 18.4575C13.9537 18.4275 14.0837 18.4075 14.2137 18.3675C14.3437 18.3275 14.4837 18.2975 14.6137 18.2475C14.6237 18.2475 14.6437 18.2375 14.6537 18.2375C14.7737 18.1975 14.8837 18.1575 14.9937 18.0975C15.0537 18.0775 15.1137 18.0475 15.1837 18.0175C15.6837 17.7775 16.2237 17.7275 16.7237 17.8475C17.0937 17.9375 17.4237 18.1175 17.7037 18.3975C18.0937 18.7975 18.3137 19.3375 18.3137 19.9175Z" fill="url(#paint10_linear_114_5)"/>
<path d="M3.95369 13.8473C3.75369 13.8473 3.59369 13.6873 3.59369 13.4873C3.59369 8.33731 7.78369 4.13731 12.9437 4.13731C14.7137 4.13731 16.4437 4.63731 17.9237 5.58731C18.4737 5.93731 19.2137 5.84731 19.6837 5.37731C19.9637 5.09731 20.1137 4.72731 20.1137 4.33731C20.1137 3.84731 19.8837 3.42731 19.4937 3.16731C17.0237 1.59731 14.0437 0.967309 11.0937 1.40731C10.7437 1.45731 10.3737 1.52731 9.97369 1.62731C9.77369 1.67731 9.58369 1.55731 9.54369 1.36731C9.49369 1.17731 9.61369 0.977312 9.80369 0.937312C10.2337 0.837312 10.6237 0.75731 10.9937 0.69731C14.1137 0.23731 17.2637 0.907309 19.8837 2.56731C20.4837 2.95731 20.8437 3.61731 20.8437 4.34731C20.8437 4.93731 20.6137 5.48731 20.2037 5.89731C19.5037 6.60731 18.3837 6.73731 17.5537 6.20731C16.1837 5.32731 14.5937 4.86731 12.9537 4.86731C8.19369 4.86731 4.32369 8.73731 4.32369 13.4973C4.31369 13.6873 4.15369 13.8473 3.95369 13.8473Z" fill="url(#paint11_linear_114_5)"/>
<path d="M3.93366 22.5974C3.84366 22.5974 3.74366 22.5574 3.67366 22.4874C0.95366 19.7074 -0.35634 15.8774 0.0836596 11.9874C0.56366 7.64744 3.32366 3.75744 7.28366 1.82744C7.46366 1.73744 7.67366 1.81743 7.76366 1.99743C7.85366 2.17743 7.77366 2.38743 7.59366 2.47743C3.85366 4.29743 1.24366 7.97743 0.793663 12.0674C0.383663 15.7474 1.61366 19.3574 4.18366 21.9874C4.32366 22.1274 4.32366 22.3574 4.17366 22.4974C4.11366 22.5674 4.02366 22.5974 3.93366 22.5974Z" fill="url(#paint12_linear_114_5)"/>
<path d="M8.64369 3.32742C8.40369 3.32742 8.16368 3.27742 7.94368 3.16742C7.11368 2.77742 6.75369 1.78742 7.14369 0.957421C7.53369 0.127421 8.52369 -0.232582 9.35369 0.157418C9.75369 0.347418 10.0637 0.677421 10.2137 1.09742C10.3637 1.51742 10.3437 1.96742 10.1537 2.36742C9.96368 2.76742 9.63369 3.07742 9.21369 3.22742C9.02369 3.28742 8.83369 3.32742 8.64369 3.32742ZM8.64369 0.727418C8.29369 0.727418 7.95368 0.927419 7.79368 1.26742C7.57368 1.73742 7.77369 2.29742 8.24369 2.51742C8.47369 2.62742 8.72369 2.63742 8.96369 2.54742C9.20369 2.45742 9.39369 2.28742 9.49369 2.05742C9.60369 1.82742 9.61368 1.57742 9.52368 1.33742C9.43368 1.09742 9.26369 0.91742 9.03369 0.80742C8.91369 0.74742 8.77369 0.727418 8.64369 0.727418Z" fill="url(#paint13_linear_114_5)"/>
<path d="M13.2236 7.75738C13.0836 7.30738 12.7736 6.93738 12.3336 6.72738C11.9336 6.53738 11.4836 6.51738 11.0736 6.66738C10.6536 6.81738 10.3236 7.11738 10.1336 7.51738C9.98364 7.83738 9.94363 8.19738 10.0136 8.53738C10.0236 8.62738 10.0536 8.70738 10.0736 8.78738C10.1236 8.93738 10.2036 9.07738 10.2936 9.19738C10.3036 9.19738 10.3036 9.20738 10.3036 9.20738C10.4736 9.42738 10.6836 9.60738 10.9436 9.72738C11.1636 9.83738 11.4036 9.88738 11.6436 9.88738C11.8336 9.88738 12.0336 9.84738 12.2136 9.78738C12.6336 9.63738 12.9636 9.32738 13.1536 8.93738C13.2236 8.78738 13.2636 8.63738 13.2936 8.47738V8.46738C13.3136 8.21738 13.3036 7.98738 13.2236 7.75738ZM12.4836 8.62738C12.3736 8.85738 12.1936 9.02738 11.9536 9.11738C11.7136 9.20738 11.4636 9.18738 11.2336 9.07738C11.1236 9.02738 11.0236 8.95738 10.9436 8.86738C10.8836 8.80738 10.8336 8.72738 10.7836 8.63738C10.7736 8.60738 10.7636 8.57738 10.7436 8.54738C10.7036 8.43738 10.6836 8.30738 10.6936 8.18738H10.7036C10.7036 8.06738 10.7336 7.93738 10.7836 7.81738C10.8936 7.59738 11.0736 7.41738 11.3136 7.33738C11.4136 7.29738 11.5336 7.27738 11.6336 7.27738C11.7636 7.27738 11.9036 7.30738 12.0336 7.36738C12.2136 7.45738 12.3536 7.58738 12.4436 7.75738C12.5736 7.96738 12.6136 8.22738 12.5336 8.47738C12.5236 8.52738 12.5136 8.57738 12.4836 8.62738Z" fill="url(#paint14_linear_114_5)"/>
<path d="M4.11366 16.4374C3.74366 16.4374 3.36366 16.3174 3.05366 16.0574C2.35366 15.4774 2.25366 14.4274 2.83366 13.7174C3.41366 13.0174 4.46366 12.9174 5.17366 13.4974C5.87366 14.0774 5.97366 15.1274 5.39366 15.8374C5.06366 16.2374 4.58366 16.4374 4.11366 16.4374ZM4.11366 13.8374C3.84366 13.8374 3.57366 13.9574 3.38366 14.1774C3.05366 14.5774 3.11366 15.1674 3.50366 15.4974C3.90366 15.8274 4.49366 15.7774 4.82366 15.3774C5.15366 14.9774 5.09366 14.3874 4.70366 14.0574C4.53366 13.9074 4.32366 13.8374 4.11366 13.8374Z" fill="url(#paint15_linear_114_5)"/>
<path d="M22.6036 23.2074C22.2136 23.2074 21.8436 23.0774 21.5436 22.8274C20.8436 22.2474 20.7437 21.1974 21.3237 20.4874C21.9037 19.7874 22.9536 19.6874 23.6636 20.2674C24.0036 20.5474 24.2136 20.9474 24.2536 21.3874C24.2936 21.8274 24.1636 22.2574 23.8736 22.5974C23.5936 22.9374 23.1936 23.1474 22.7536 23.1874C22.7136 23.1974 22.6636 23.2074 22.6036 23.2074ZM22.6136 20.6074C22.3436 20.6074 22.0736 20.7274 21.8936 20.9474C21.5636 21.3474 21.6136 21.9374 22.0136 22.2674C22.4136 22.5974 23.0036 22.5474 23.3336 22.1474C23.4936 21.9574 23.5736 21.7074 23.5436 21.4574C23.5236 21.2074 23.4036 20.9774 23.2036 20.8174C23.0336 20.6774 22.8236 20.6074 22.6136 20.6074Z" fill="url(#paint16_linear_114_5)"/>
<path d="M4.80368 24.8575C4.41368 24.8575 4.04368 24.7275 3.74368 24.4775C3.40368 24.1975 3.19368 23.7975 3.15368 23.3575C3.11368 22.9175 3.24368 22.4875 3.53368 22.1475C4.11368 21.4475 5.16368 21.3475 5.87368 21.9275C6.57368 22.5075 6.67368 23.5575 6.09368 24.2675C5.81368 24.6075 5.41368 24.8175 4.97368 24.8575C4.90368 24.8575 4.85368 24.8575 4.80368 24.8575ZM4.80368 22.2575C4.53368 22.2575 4.26368 22.3775 4.08368 22.5975C3.92368 22.7875 3.84368 23.0375 3.87368 23.2875C3.89368 23.5375 4.01368 23.7675 4.21368 23.9275C4.40368 24.0875 4.64368 24.1675 4.90368 24.1375C5.15368 24.1175 5.38368 23.9975 5.54368 23.7975C5.87368 23.3975 5.82368 22.8075 5.42368 22.4775C5.23368 22.3275 5.01368 22.2575 4.80368 22.2575Z" fill="url(#paint17_linear_114_5)"/>
<path d="M48.3037 17.1274C47.6237 17.1274 46.9937 17.0074 46.4237 16.7774C45.8537 16.5474 45.3437 16.2274 44.9137 15.8074C44.4837 15.3874 44.1537 14.8974 43.9237 14.3374C43.6837 13.7774 43.5737 13.1674 43.5737 12.4974C43.5737 11.8274 43.6937 11.2174 43.9237 10.6574C44.1537 10.0974 44.4937 9.60744 44.9237 9.18744C45.3537 8.76744 45.8537 8.44744 46.4337 8.21744C47.0037 7.98744 47.6337 7.87744 48.3137 7.87744C48.9537 7.87744 49.5637 7.97744 50.1237 8.18744C50.6837 8.39744 51.1637 8.71744 51.5637 9.13744L51.1437 9.56744C50.7537 9.18744 50.3237 8.90744 49.8437 8.73744C49.3737 8.56744 48.8637 8.48744 48.3337 8.48744C47.7537 8.48744 47.2137 8.58744 46.7137 8.78744C46.2137 8.98744 45.7837 9.26744 45.4137 9.63744C45.0437 10.0074 44.7537 10.4274 44.5537 10.9174C44.3537 11.4074 44.2437 11.9374 44.2437 12.5074C44.2437 13.0774 44.3437 13.6074 44.5537 14.0974C44.7537 14.5874 45.0437 15.0074 45.4137 15.3774C45.7837 15.7474 46.2137 16.0274 46.7137 16.2274C47.2137 16.4274 47.7537 16.5274 48.3337 16.5274C48.8637 16.5274 49.3637 16.4474 49.8437 16.2774C50.3137 16.1074 50.7537 15.8274 51.1437 15.4374L51.5637 15.8674C51.1637 16.2974 50.6837 16.6174 50.1237 16.8274C49.5637 17.0374 48.9437 17.1274 48.3037 17.1274Z" fill="url(#paint18_linear_114_5)"/>
<path d="M53.5637 17.0675V7.39746H54.2137V17.0675H53.5637Z" fill="url(#paint19_linear_114_5)"/>
<path d="M59.7336 17.1175C59.0436 17.1175 58.4436 16.9675 57.9136 16.6775C57.3836 16.3875 56.9736 15.9775 56.6736 15.4575C56.3736 14.9375 56.2236 14.3375 56.2236 13.6675C56.2236 12.9875 56.3636 12.3875 56.6436 11.8775C56.9236 11.3575 57.3136 10.9575 57.8136 10.6575C58.3136 10.3675 58.8636 10.2175 59.4836 10.2175C60.1036 10.2175 60.6536 10.3575 61.1436 10.6475C61.6336 10.9375 62.0236 11.3375 62.3036 11.8575C62.5836 12.3775 62.7236 12.9775 62.7236 13.6475C62.7236 13.6775 62.7236 13.6975 62.7136 13.7275C62.7136 13.7575 62.7036 13.7875 62.7036 13.8275H56.6936V13.3175H62.3536L62.0936 13.5675C62.1036 13.0375 61.9936 12.5575 61.7636 12.1375C61.5336 11.7175 61.2236 11.3875 60.8336 11.1475C60.4436 10.9075 59.9936 10.7875 59.4736 10.7875C58.9736 10.7875 58.5236 10.9075 58.1236 11.1475C57.7236 11.3875 57.4136 11.7175 57.1936 12.1375C56.9636 12.5575 56.8536 13.0375 56.8536 13.5775V13.6975C56.8536 14.2575 56.9736 14.7475 57.2236 15.1775C57.4736 15.6075 57.8136 15.9475 58.2436 16.1775C58.6736 16.4175 59.1736 16.5375 59.7336 16.5375C60.1636 16.5375 60.5736 16.4575 60.9536 16.2975C61.3336 16.1375 61.6536 15.8975 61.9136 15.5775L62.2936 16.0075C61.9936 16.3675 61.6236 16.6475 61.1736 16.8375C60.7436 17.0275 60.2536 17.1175 59.7336 17.1175Z" fill="url(#paint20_linear_114_5)"/>
<path d="M66.3937 17.1175C65.8937 17.1175 65.4537 17.0375 65.0837 16.8775C64.7137 16.7175 64.4337 16.4875 64.2337 16.1975C64.0337 15.9075 63.9437 15.5675 63.9437 15.1775C63.9437 14.8275 64.0237 14.5175 64.1837 14.2275C64.3437 13.9475 64.6137 13.7175 64.9837 13.5375C65.3537 13.3575 65.8537 13.2675 66.4837 13.2675H68.9837V13.7775H66.4937C65.7937 13.7775 65.2937 13.9075 65.0137 14.1675C64.7337 14.4275 64.5937 14.7575 64.5937 15.1475C64.5937 15.5875 64.7637 15.9275 65.0937 16.1875C65.4237 16.4475 65.8837 16.5775 66.4837 16.5775C67.0537 16.5775 67.5437 16.4475 67.9337 16.1875C68.3337 15.9275 68.6237 15.5475 68.8137 15.0575L68.9937 15.4975C68.8137 15.9975 68.5037 16.3875 68.0637 16.6775C67.6337 16.9675 67.0737 17.1175 66.3937 17.1175ZM68.8537 17.0675V15.5175L68.8237 15.2875V12.7275C68.8237 12.0975 68.6537 11.6075 68.3137 11.2775C67.9737 10.9475 67.4637 10.7775 66.8037 10.7775C66.3337 10.7775 65.8937 10.8575 65.4937 11.0175C65.0937 11.1775 64.7437 11.3875 64.4537 11.6375L64.1237 11.1675C64.4637 10.8675 64.8737 10.6275 65.3537 10.4575C65.8337 10.2875 66.3337 10.2075 66.8537 10.2075C67.6937 10.2075 68.3437 10.4175 68.7937 10.8475C69.2437 11.2775 69.4737 11.9075 69.4737 12.7475V17.0675H68.8537Z" fill="url(#paint21_linear_114_5)"/>
<path d="M75.4837 10.2075C76.0437 10.2075 76.5237 10.3175 76.9337 10.5275C77.3437 10.7375 77.6637 11.0575 77.8937 11.4875C78.1237 11.9175 78.2437 12.4475 78.2437 13.0875V17.0675H77.5937V13.1475C77.5937 12.3875 77.4037 11.7975 77.0137 11.3975C76.6237 10.9975 76.0837 10.7975 75.3937 10.7975C74.8637 10.7975 74.4037 10.9075 74.0137 11.1275C73.6237 11.3475 73.3237 11.6475 73.1237 12.0375C72.9237 12.4275 72.8137 12.8975 72.8137 13.4475V17.0675H72.1637V10.2575H72.7937V12.1475L72.7037 11.9375C72.9137 11.3975 73.2537 10.9775 73.7337 10.6675C74.2037 10.3575 74.7937 10.2075 75.4837 10.2075Z" fill="url(#paint22_linear_114_5)"/>
<path d="M81.1437 17.0675V7.9375H84.4137C85.1737 7.9375 85.8337 8.0575 86.3837 8.3075C86.9337 8.5475 87.3537 8.8975 87.6437 9.3575C87.9337 9.8175 88.0837 10.3675 88.0837 11.0175C88.0837 11.6475 87.9337 12.1975 87.6437 12.6575C87.3437 13.1175 86.9237 13.4675 86.3837 13.7175C85.8337 13.9675 85.1837 14.0875 84.4137 14.0875H81.5037L81.8037 13.7775V17.0775H81.1437V17.0675ZM81.8137 13.8075L81.5137 13.4975H84.4237C85.4037 13.4975 86.1537 13.2775 86.6637 12.8475C87.1737 12.4175 87.4237 11.8075 87.4237 11.0175C87.4237 10.2275 87.1737 9.6175 86.6637 9.1875C86.1537 8.7575 85.4137 8.5475 84.4237 8.5475H81.5137L81.8137 8.2175V13.8075ZM87.4837 17.0675L85.1137 13.7575H85.8737L88.2437 17.0675H87.4837Z" fill="url(#paint23_linear_114_5)"/>
<path d="M90.5337 17.0675V7.9375H91.2037V16.4675H96.4537V17.0675H90.5337Z" fill="url(#paint24_linear_114_5)"/>
<defs>
<linearGradient id="paint0_linear_114_5" x1="-2.16075" y1="27.3816" x2="21.9194" y2="5.21685" gradientUnits="userSpaceOnUse">
<stop stop-color="#00E1F8"/>
<stop offset="1" stop-color="#078BFF"/>
</linearGradient>
<linearGradient id="paint1_linear_114_5" x1="-2.16068" y1="27.3815" x2="21.9194" y2="5.21691" gradientUnits="userSpaceOnUse">
<stop stop-color="#00E1F8"/>
<stop offset="1" stop-color="#078BFF"/>
</linearGradient>
<linearGradient id="paint2_linear_114_5" x1="6.00782" y1="36.2558" x2="30.088" y2="14.0911" gradientUnits="userSpaceOnUse">
<stop stop-color="#00E1F8"/>
<stop offset="1" stop-color="#078BFF"/>
</linearGradient>
<linearGradient id="paint3_linear_114_5" x1="7.61472" y1="38.0016" x2="31.6949" y2="15.837" gradientUnits="userSpaceOnUse">
<stop stop-color="#00E1F8"/>
<stop offset="1" stop-color="#078BFF"/>
</linearGradient>
<linearGradient id="paint4_linear_114_5" x1="7.55069" y1="37.9323" x2="31.6308" y2="15.7675" gradientUnits="userSpaceOnUse">
<stop stop-color="#00E1F8"/>
<stop offset="1" stop-color="#078BFF"/>
</linearGradient>
<linearGradient id="paint5_linear_114_5" x1="6.07172" y1="36.3254" x2="30.1519" y2="14.1607" gradientUnits="userSpaceOnUse">
<stop stop-color="#00E1F8"/>
<stop offset="1" stop-color="#078BFF"/>
</linearGradient>
<linearGradient id="paint6_linear_114_5" x1="2.52127" y1="32.4682" x2="26.6015" y2="10.3035" gradientUnits="userSpaceOnUse">
<stop stop-color="#00E1F8"/>
<stop offset="1" stop-color="#078BFF"/>
</linearGradient>
<linearGradient id="paint7_linear_114_5" x1="6.81245" y1="37.13" x2="30.8926" y2="14.9653" gradientUnits="userSpaceOnUse">
<stop stop-color="#00E1F8"/>
<stop offset="1" stop-color="#078BFF"/>
</linearGradient>
<linearGradient id="paint8_linear_114_5" x1="-3.58214" y1="25.8371" x2="20.498" y2="3.67239" gradientUnits="userSpaceOnUse">
<stop stop-color="#00E1F8"/>
<stop offset="1" stop-color="#078BFF"/>
</linearGradient>
<linearGradient id="paint9_linear_114_5" x1="3.07186" y1="33.0662" x2="27.152" y2="10.9015" gradientUnits="userSpaceOnUse">
<stop stop-color="#00E1F8"/>
<stop offset="1" stop-color="#078BFF"/>
</linearGradient>
<linearGradient id="paint10_linear_114_5" x1="-1.03703" y1="28.6024" x2="23.0431" y2="6.43767" gradientUnits="userSpaceOnUse">
<stop stop-color="#00E1F8"/>
<stop offset="1" stop-color="#078BFF"/>
</linearGradient>
<linearGradient id="paint11_linear_114_5" x1="-6.25501" y1="22.9333" x2="17.8252" y2="0.768613" gradientUnits="userSpaceOnUse">
<stop stop-color="#00E1F8"/>
<stop offset="1" stop-color="#078BFF"/>
</linearGradient>
<linearGradient id="paint12_linear_114_5" x1="-6.30134" y1="22.8831" x2="17.7789" y2="0.718435" gradientUnits="userSpaceOnUse">
<stop stop-color="#00E1F8"/>
<stop offset="1" stop-color="#078BFF"/>
</linearGradient>
<linearGradient id="paint13_linear_114_5" x1="-10.0201" y1="18.8429" x2="14.06" y2="-3.32176" gradientUnits="userSpaceOnUse">
<stop stop-color="#00E1F8"/>
<stop offset="1" stop-color="#078BFF"/>
</linearGradient>
<linearGradient id="paint14_linear_114_5" x1="-5.37676" y1="23.8876" x2="18.7034" y2="1.72289" gradientUnits="userSpaceOnUse">
<stop stop-color="#00E1F8"/>
<stop offset="1" stop-color="#078BFF"/>
</linearGradient>
<linearGradient id="paint15_linear_114_5" x1="-5.56345" y1="23.6848" x2="18.5168" y2="1.52003" gradientUnits="userSpaceOnUse">
<stop stop-color="#00E1F8"/>
<stop offset="1" stop-color="#078BFF"/>
</linearGradient>
<linearGradient id="paint16_linear_114_5" x1="6.29197" y1="36.5647" x2="30.3722" y2="14.4" gradientUnits="userSpaceOnUse">
<stop stop-color="#00E1F8"/>
<stop offset="1" stop-color="#078BFF"/>
</linearGradient>
<linearGradient id="paint17_linear_114_5" x1="-1.04982" y1="28.5885" x2="23.0304" y2="6.42385" gradientUnits="userSpaceOnUse">
<stop stop-color="#00E1F8"/>
<stop offset="1" stop-color="#078BFF"/>
</linearGradient>
<linearGradient id="paint18_linear_114_5" x1="43.8177" y1="13.5339" x2="88.1246" y2="3.31845" gradientUnits="userSpaceOnUse">
<stop stop-color="#00E1F8"/>
<stop offset="1" stop-color="#078BFF"/>
</linearGradient>
<linearGradient id="paint19_linear_114_5" x1="44.0401" y1="14.4993" x2="88.3471" y2="4.28372" gradientUnits="userSpaceOnUse">
<stop stop-color="#00E1F8"/>
<stop offset="1" stop-color="#078BFF"/>
</linearGradient>
<linearGradient id="paint20_linear_114_5" x1="44.6439" y1="17.1182" x2="88.9509" y2="6.90272" gradientUnits="userSpaceOnUse">
<stop stop-color="#00E1F8"/>
<stop offset="1" stop-color="#078BFF"/>
</linearGradient>
<linearGradient id="paint21_linear_114_5" x1="45.0554" y1="18.9026" x2="89.3624" y2="8.68711" gradientUnits="userSpaceOnUse">
<stop stop-color="#00E1F8"/>
<stop offset="1" stop-color="#078BFF"/>
</linearGradient>
<linearGradient id="paint22_linear_114_5" x1="45.4298" y1="20.5263" x2="89.7367" y2="10.3108" gradientUnits="userSpaceOnUse">
<stop stop-color="#00E1F8"/>
<stop offset="1" stop-color="#078BFF"/>
</linearGradient>
<linearGradient id="paint23_linear_114_5" x1="45.6544" y1="21.5008" x2="89.9614" y2="11.2853" gradientUnits="userSpaceOnUse">
<stop stop-color="#00E1F8"/>
<stop offset="1" stop-color="#078BFF"/>
</linearGradient>
<linearGradient id="paint24_linear_114_5" x1="46.0987" y1="23.4273" x2="90.4056" y2="13.2118" gradientUnits="userSpaceOnUse">
<stop stop-color="#00E1F8"/>
<stop offset="1" stop-color="#078BFF"/>
</linearGradient>
</defs>
</svg>
